<?xml version="1.0" encoding="iso-8859-1"?>
<!-- Generator: Adobe Illustrator 19.0.0, SVG Export Plug-In . SVG Version: 6.00 Build 0)  -->
<svg version="1.1" id="Capa_1" xmlns="http://www.w3.org/2000/svg" xmlns:xlink="http://www.w3.org/1999/xlink" x="0px" y="0px"
	 viewBox="0 0 397.6 397.6" style="enable-background:new 0 0 397.6 397.6;" xml:space="preserve">
<g>
	<g>
		<g>
			<path d="M198.8,42.8c-86,0-156,70-156,156s70,156,156,156s156-70,156-156S284.8,42.8,198.8,42.8z M198.8,342
				c-79.2,0-143.2-64.4-143.2-143.2c0-79.2,64.4-143.2,143.2-143.2S342,119.6,342,198.8S278,342,198.8,342z"/>
			<path d="M198.8,0C89.2,0,0,89.2,0,198.8s89.2,198.8,198.8,198.8s198.8-89.2,198.8-198.8S308.4,0,198.8,0z M198.8,385.2
				C96,385.2,12.4,301.6,12.4,198.8S96,12.4,198.8,12.4S385.2,96,385.2,198.8S301.6,385.2,198.8,385.2z"/>
			<path d="M251.6,199.6c12-8.4,20.4-22.4,20.4-38.4c0-24-19.6-43.6-43.6-43.6h-2v-20c0-3.6-2.8-6.4-6.4-6.4c-3.6,0-6.4,2.8-6.4,6.4
				v20h-30.8v-20c0-3.6-2.8-6.4-6.4-6.4s-5.6,3.2-5.6,6.4v20H146c-3.6,0-6.4,2.8-6.4,6.4c0,3.6,2.8,6.4,6.4,6.4h24.8v62.4h-6.4
				c-3.6,0-6.4,2.8-6.4,6.4c0,3.6,2.8,6.4,6.4,6.4h6.4V268H146c-3.6,0-6.4,2.8-6.4,6.4c0,3.6,2.8,6.4,6.4,6.4h24.8v20
				c0,3.6,2.8,6.4,6.4,6.4c3.6,0,6.4-2.8,6.4-6.4v-20h30.8v20c0,3.6,2.8,6.4,6.4,6.4c3.6,0,6.4-2.8,6.4-6.4v-20h2
				c24,0,43.6-19.6,43.6-43.6C272.8,221.2,264.4,207.6,251.6,199.6z M183.2,192.4v-62h45.2c17.2,0,31.2,14,31.2,31.2
				s-14,31.2-31.2,31.2h-45.2V192.4z M228.4,267.6H220h-36.8v-62.4h45.2c17.2,0,31.2,14,31.2,31.2S245.6,267.6,228.4,267.6z"/>
		</g>
	</g>
</g>
<g>
</g>
<g>
</g>
<g>
</g>
<g>
</g>
<g>
</g>
<g>
</g>
<g>
</g>
<g>
</g>
<g>
</g>
<g>
</g>
<g>
</g>
<g>
</g>
<g>
</g>
<g>
</g>
<g>
</g>
</svg>
