<?xml version="1.0" encoding="iso-8859-1"?>
<!-- Generator: Adobe Illustrator 19.0.0, SVG Export Plug-In . SVG Version: 6.00 Build 0)  -->
<svg version="1.1" id="Capa_1" xmlns="http://www.w3.org/2000/svg" xmlns:xlink="http://www.w3.org/1999/xlink" x="0px" y="0px"
	 viewBox="0 0 496 496" style="enable-background:new 0 0 496 496;" xml:space="preserve">
<g>
	<g>
		<g>
			<path d="M213.728,176.552l-2.384,5.008c-1.016,2.144-2.84,3.664-5.144,4.288c-2.288,0.608-4.648,0.216-6.608-1.136l-6.04-4.16
				c-3.144-2.16-6.368-3.472-9.592-3.904c-9.744-1.288-18.76,1.472-25.432,7.792c-6.416,6.08-9.696,14.624-9,23.44l0.44,5.472
				c0.184,2.376-0.632,4.608-2.32,6.296c-1.688,1.672-3.96,2.512-6.288,2.32l-7.296-0.576c-3.824-0.296-7.256,0.176-10.264,1.416
				c-9.072,3.736-15.512,10.648-18.136,19.464c-2.512,8.48-1.08,17.512,3.928,24.792l3.12,4.528c1.344,1.96,1.752,4.304,1.144,6.6
				c-0.616,2.304-2.144,4.136-4.288,5.16l-6.616,3.144c-3.432,1.64-6.176,3.776-8.176,6.36c-5.984,7.768-8.112,16.976-5.968,25.912
				c2.056,8.6,7.824,15.712,15.808,19.512l4.952,2.36c2.152,1.024,3.672,2.848,4.288,5.152s0.208,4.648-1.144,6.608l-4.152,6.024
				c-2.152,3.136-3.464,6.36-3.896,9.592c-1.304,9.728,1.464,18.76,7.792,25.44c6.088,6.424,14.728,9.744,23.44,9l5.48-0.432
				c2.368-0.2,4.608,0.64,6.288,2.32c1.688,1.68,2.504,3.92,2.32,6.28l-0.584,7.32c-0.296,3.808,0.184,7.256,1.424,10.248
				c3.736,9.072,10.648,15.504,19.464,18.128c8.504,2.528,17.52,1.088,24.808-3.928l4.52-3.112c1.952-1.344,4.296-1.76,6.608-1.136
				c2.296,0.616,4.128,2.136,5.152,4.288l3.152,6.616c1.64,3.44,3.792,6.192,6.36,8.168c5.792,4.472,12.384,6.784,19.072,6.784
				c2.28,0,4.568-0.272,6.84-0.816c8.6-2.056,15.72-7.824,19.504-15.792l2.376-4.968c1.016-2.152,2.84-3.664,5.144-4.288
				c2.312-0.624,4.648-0.208,6.616,1.136l6.032,4.152c3.144,2.16,6.368,3.472,9.592,3.904c9.752,1.336,18.768-1.464,25.432-7.792
				c6.416-6.08,9.696-14.624,9-23.44l-0.44-5.472c-0.184-2.376,0.632-4.608,2.32-6.296c1.68-1.68,3.936-2.552,6.288-2.32
				l7.296,0.576c3.824,0.304,7.264-0.176,10.248-1.416c9.08-3.728,15.52-10.648,18.144-19.464c2.52-8.48,1.096-17.512-3.92-24.8
				l-3.12-4.528c-1.344-1.96-1.752-4.304-1.144-6.6c0.616-2.304,2.144-4.136,4.288-5.16l4.96-2.36
				c7.984-3.8,13.752-10.912,15.808-19.512c2.144-8.944,0.024-18.152-5.976-25.928c-1.992-2.576-4.744-4.72-8.168-6.352
				l-6.608-3.144c-2.16-1.024-3.68-2.856-4.296-5.16c-0.608-2.304-0.2-4.648,1.152-6.608l4.152-6.024
				c2.152-3.136,3.464-6.36,3.896-9.592c1.304-9.72-1.464-18.76-7.784-25.432c-6.08-6.424-14.624-9.68-23.448-9.008l-5.48,0.432
				c-2.4,0.24-4.608-0.632-6.288-2.312c-1.688-1.68-2.504-3.92-2.32-6.288L330.64,206c0.296-3.8-0.184-7.248-1.424-10.248
				c-3.736-9.072-10.648-15.504-19.464-18.128c-8.472-2.52-17.512-1.08-24.808,3.928l-4.512,3.112
				c-1.968,1.352-4.32,1.76-6.608,1.136c-2.304-0.616-4.136-2.136-5.16-4.288l-3.152-6.608c-1.64-3.44-3.784-6.192-6.36-8.176
				c-7.776-6-17-8.112-25.928-5.968C224.632,162.824,217.52,168.584,213.728,176.552z M225.792,188.448l2.376-4.968
				c1.712-3.592,4.904-6.184,8.776-7.112c4.136-1,8.56,0.096,12.448,3.088c0.552,0.424,1.152,1.272,1.68,2.376l3.144,6.608
				c3.024,6.352,8.656,11.04,15.456,12.864c6.808,1.84,14.032,0.584,19.832-3.408l4.512-3.112c3.296-2.264,7.352-2.896,11.176-1.768
				c4.088,1.216,7.36,4.368,9.216,8.88c0.16,0.376,0.4,1.248,0.264,2.896l-0.584,7.312c-0.552,7.016,1.984,13.896,6.968,18.872
				c4.976,4.976,11.816,7.512,18.856,6.952l5.48-0.432c3.936-0.368,7.824,1.16,10.56,4.056c2.928,3.096,4.184,7.464,3.536,12.304
				c-0.096,0.696-0.528,1.64-1.224,2.656l-4.144,6.024c-3.992,5.8-5.24,13.016-3.424,19.816c1.824,6.8,6.504,12.44,12.864,15.472
				l6.6,3.144c1.12,0.528,1.968,1.136,2.4,1.68c2.976,3.864,4.072,8.28,3.08,12.424c-0.92,3.872-3.52,7.08-7.12,8.792l-4.968,2.36
				c-6.352,3.032-11.04,8.664-12.856,15.472c-1.824,6.8-0.568,14.016,3.416,19.808l3.12,4.528c2.256,3.288,2.896,7.352,1.768,11.168
				c-1.208,4.088-4.368,7.36-8.896,9.224c-0.624,0.264-1.624,0.376-2.888,0.256l-7.296-0.576
				c-7.048-0.552-13.888,1.984-18.864,6.952c-4.976,4.976-7.512,11.848-6.96,18.872l0.44,5.472c0.312,3.968-1.168,7.824-4.056,10.56
				c-3.088,2.936-7.456,4.224-12.296,3.544c-0.4-0.056-1.28-0.288-2.656-1.224l-6.024-4.152c-5.816-4-13.032-5.248-19.832-3.408
				c-6.8,1.824-12.432,6.512-15.448,12.848l-2.376,4.968c-1.712,3.6-4.904,6.192-8.784,7.12c-4.16,1-8.552-0.104-12.44-3.088
				c-0.32-0.24-0.96-0.88-1.68-2.376l-3.144-6.608c-3.024-6.352-8.656-11.04-15.456-12.864c-2.056-0.552-4.152-0.824-6.224-0.824
				c-4.808,0-9.552,1.448-13.6,4.232l-4.512,3.112c-3.296,2.264-7.368,2.896-11.168,1.768c-4.096-1.216-7.368-4.368-9.224-8.888
				c-0.16-0.368-0.4-1.24-0.264-2.888l0.584-7.312c0.552-7.016-1.984-13.888-6.96-18.864c-4.976-4.976-11.8-7.504-18.864-6.952
				l-5.48,0.432c-3.952,0.344-7.824-1.168-10.56-4.048c-2.928-3.096-4.184-7.472-3.536-12.304c0.096-0.696,0.528-1.64,1.224-2.656
				l4.152-6.024c3.984-5.8,5.224-13.024,3.408-19.824c-1.816-6.8-6.504-12.432-12.856-15.456l-4.96-2.36
				c-3.592-1.712-6.184-4.92-7.12-8.792c-0.992-4.152,0.104-8.56,3.072-12.416c0.44-0.56,1.288-1.16,2.4-1.688l6.616-3.144
				c6.352-3.032,11.04-8.664,12.856-15.472c1.824-6.8,0.568-14.016-3.416-19.808l-3.12-4.528c-2.256-3.288-2.896-7.352-1.768-11.168
				c1.208-4.088,4.368-7.36,8.888-9.224c0.368-0.152,1.224-0.408,2.896-0.256l7.296,0.576c7.064,0.592,13.888-1.976,18.864-6.952
				c4.976-4.976,7.512-11.848,6.96-18.872l-0.44-5.472c-0.312-3.968,1.168-7.824,4.056-10.56c3.096-2.928,7.48-4.192,12.296-3.544
				c0.4,0.056,1.28,0.288,2.648,1.224l6.04,4.152c5.8,3.992,13.024,5.224,19.832,3.408
				C217.152,199.48,222.776,194.784,225.792,188.448z"/>
			<path d="M136,312c0,57.344,46.656,104,104,104s104-46.656,104-104s-46.656-104-104-104S136,254.656,136,312z M240,224
				c48.52,0,88,39.48,88,88c0,48.52-39.48,88-88,88c-48.52,0-88-39.48-88-88C152,263.48,191.48,224,240,224z"/>
			<path d="M240,384c39.704,0,72-32.304,72-72s-32.296-72-72-72c-39.704,0-72,32.304-72,72S200.296,384,240,384z M240,256
				c30.872,0,56,25.12,56,56s-25.128,56-56,56s-56-25.12-56-56S209.128,256,240,256z"/>
			<path d="M456,176h-40v320h40c22.056,0,40-17.944,40-40V216C496,193.944,478.056,176,456,176z M480,456c0,13.232-10.768,24-24,24
				h-24V192h24c13.232,0,24,10.768,24,24V456z"/>
			<rect x="448" y="304" width="16" height="64"/>
			<path d="M64,192v-8v-8H40c-22.056,0-40,17.944-40,40v240c0,22.056,17.944,40,40,40h360v-16H64V192z M48,480h-8
				c-13.232,0-24-10.768-24-24V216c0-13.232,10.768-24,24-24h8V480z"/>
			<polygon points="341.008,16 387.208,16 330.528,132.496 344.92,139.504 405.008,16 435.208,16 344.808,201.832 359.192,208.832 
				460.792,0 330.992,0 258.752,148.496 273.144,155.504 			"/>
			
				<rect x="318.054" y="151.05" transform="matrix(-0.8993 -0.4374 0.4374 -0.8993 549.3078 446.3946)" width="16" height="17.793"/>
			<polygon points="135.192,201.832 44.792,16 74.992,16 135.08,139.504 149.472,132.496 92.792,16 138.992,16 206.856,155.504 
				221.248,148.496 149.008,0 19.208,0 120.808,208.832 			"/>
			<rect x="145.055" y="151.992" transform="matrix(0.4374 0.8993 -0.8993 0.4374 230.4914 -48.4309)" width="17.792" height="16"/>
		</g>
	</g>
</g>
<g>
</g>
<g>
</g>
<g>
</g>
<g>
</g>
<g>
</g>
<g>
</g>
<g>
</g>
<g>
</g>
<g>
</g>
<g>
</g>
<g>
</g>
<g>
</g>
<g>
</g>
<g>
</g>
<g>
</g>
</svg>
